<?xml version="1.0" standalone="no"?><!DOCTYPE svg PUBLIC "-//W3C//DTD SVG 1.1//EN" "http://www.w3.org/Graphics/SVG/1.1/DTD/svg11.dtd"><svg t="1504259063227" class="icon" style="" viewBox="0 0 1024 1024" version="1.1" xmlns="http://www.w3.org/2000/svg" p-id="6079" xmlns:xlink="http://www.w3.org/1999/xlink" width="200" height="200"><defs><style type="text/css"></style></defs><path d="M900.096 477.696h-136.704V346.112c0-21.504-20.48-19.456-24.064-19.456-23.552 0-21.504 20.992-21.504 37.888v113.664h-136.704c-12.8 0-22.528 10.24-22.528 22.528 0 12.8 10.24 22.528 22.528 22.528h136.704v136.704c0 12.8 10.24 22.528 22.528 22.528 12.8 0 22.528-10.24 22.528-22.528v-136.704h136.704c12.8 0 22.528-10.24 22.528-22.528s-9.216-23.04-22.016-23.04z m-204.8 443.392l7.168 6.144c8.704 8.192 22.528 8.192 31.232-0.512 12.8-12.8 4.608-21.504 7.168-35.84v-11.776c0 0.512-0.512-73.216-0.512-14.336v-90.624c0-12.8-10.24-22.528-22.528-22.528s-22.528 10.24-22.528 22.528v88.064l-253.44-214.528c-1.024-2.048-2.048-4.096-3.584-5.632-8.704-8.704-23.04-8.704-32.256 0l-256.512 217.6V181.76c0-25.088 20.48-45.568 45.568-45.568H650.24c25.088 0 45.568 20.48 45.568 45.568v45.568c0 12.8 10.24 22.528 22.528 22.528 12.8 0 22.528-10.24 22.528-22.528V159.232c0-37.888-30.72-68.096-68.096-68.096H172.032c-37.888 0-68.096 30.72-68.096 68.096L101.888 865.28c0-0.512-1.024 32.768-0.512 44.032v4.096-0.512c0.512 5.12 2.56 9.728 6.144 13.312 8.704 8.704 23.552 8.704 32.256 0l10.752-8.704 270.336-228.864 274.432 232.448z" p-id="6080" fill="#dbdbdb"></path></svg>