<?xml version="1.0" standalone="no"?><!DOCTYPE svg PUBLIC "-//W3C//DTD SVG 1.1//EN" "http://www.w3.org/Graphics/SVG/1.1/DTD/svg11.dtd"><svg t="1504267289602" class="icon" style="" viewBox="0 0 1024 1024" version="1.1" xmlns="http://www.w3.org/2000/svg" p-id="12721" xmlns:xlink="http://www.w3.org/1999/xlink" width="200" height="200"><defs><style type="text/css"></style></defs><path d="M735.118222 739.919644 692.451556 739.919644c-4.164267 0-7.5776-4.323556-8.829156-10.24-0.318578 0.113778-0.637156 0.182044-0.955733 0.295822L682.666667 603.022222l-87.108267 0c-44.054756 0-79.735467-35.680711-79.735467-79.758222 0-44.032 35.680711-79.735467 79.735467-79.735467L682.666667 443.528533l0-121.491911c0.136533-0.022756 0.250311-0.068267 0.386844-0.091022 0-0.068267-0.022756-0.113778-0.022756-0.182044 0-8.237511 4.232533-14.927644 9.4208-14.927644l14.586311 0c0.022756-0.022756 0.045511-0.022756 0.045511-0.045511L750.933333 306.7904 750.933333 170.666667c0-28.034844-17.476267-45.511111-45.511111-45.511111L182.044444 125.155556c-28.034844 0-45.511111 17.476267-45.511111 45.511111l0 728.177778c0 28.0576 27.716267 45.374578 55.773867 45.374578l252.381867-194.127644 255.544889 194.127644c28.034844 0 50.699378-17.316978 50.699378-45.374578l0-159.152356-15.132444 0C735.550578 739.714844 735.345778 739.919644 735.118222 739.919644z" p-id="12722" fill="#ffffff"></path><path d="M876.088889 489.2672 773.688889 489.2672 773.688889 386.844444c0-18.8416-15.291733-34.133333-34.133333-34.133333S705.422222 368.002844 705.422222 386.844444l0 102.422756-102.4 0c-18.8416 0-34.133333 15.291733-34.133333 34.133333 0 18.864356 15.291733 34.133333 34.133333 34.133333L705.422222 557.533867 705.422222 659.911111c0 18.8416 15.291733 34.133333 34.133333 34.133333S773.688889 678.752711 773.688889 659.911111l0-102.377244 102.4 0c18.8416 0 34.133333-15.268978 34.133333-34.133333C910.222222 504.558933 894.930489 489.2672 876.088889 489.2672z" p-id="12723" fill="#ffffff"></path></svg>