<?xml version="1.0" standalone="no"?><!DOCTYPE svg PUBLIC "-//W3C//DTD SVG 1.1//EN" "http://www.w3.org/Graphics/SVG/1.1/DTD/svg11.dtd"><svg t="1504512684749" class="icon" style="" viewBox="0 0 1024 1024" version="1.1" xmlns="http://www.w3.org/2000/svg" p-id="2951" xmlns:xlink="http://www.w3.org/1999/xlink" width="200" height="200"><defs><style type="text/css"></style></defs><path d="M760.68 222.82c25.94-6.16 44.08 16.06 60.04 32.46 9.24 10 20.76 18.42 27.06 30.78 8.16 16.14 4.84 37.04-7.82 49.96-26.34 26.94-53.42 53.16-79.72 80.14-14.88 15.3-16.04 41.52-2.16 57.84 20.36 22.26 43.12 42.3 63.3 64.74 20 24.72 18.04 63.66-4.26 86.3-43.5 43.16-87.52 85.84-131.12 128.9-5.1 6.22-14.9 6.38-20.14 0.28-116.14-115.9-232.16-231.94-348.22-347.9-6.16-4.76-6.9-14.36-0.62-19.34 43.98-43.34 88.02-86.58 132.1-129.82 23.24-23.02 63.8-24.32 88.4-2.7 15.54 14.44 30.08 29.92 45.24 44.76 9.56 9.2 18.22 20.5 31.4 24.56 15.44 5.46 33.42 0.86 44.96-10.6 25.82-25.52 51.34-51.36 77.1-76.94 6.62-6.76 15.12-11.66 24.46-13.42zM274.58 430.64c6.3-3.32 13.96-0.78 18.44 4.36 115.26 115.36 230.62 230.66 345.8 346.12 6 5.1 5.94 14.74 0.02 19.88-15.1 14.84-29.44 30.52-45.42 44.44-34.84 29.14-91.04 26.42-122.94-5.92-114.16-113.82-228.22-227.78-342.18-341.82-4.42-2.98-2.06-11.4 3.62-10.18 23.56 1.8 47.78 2.98 70.94-2.58 29.36-9.64 48.64-35.5 71.72-54.3z" p-id="2952" fill="#ffffff"></path></svg>