<?xml version="1.0" standalone="no"?><!DOCTYPE svg PUBLIC "-//W3C//DTD SVG 1.1//EN" "http://www.w3.org/Graphics/SVG/1.1/DTD/svg11.dtd"><svg t="1504603144928" class="icon" style="" viewBox="0 0 1024 1024" version="1.1" xmlns="http://www.w3.org/2000/svg" p-id="2445" xmlns:xlink="http://www.w3.org/1999/xlink" width="200" height="200"><defs><style type="text/css"></style></defs><path d="M910.336 172.032" p-id="2446" fill="#e6e6e6"></path><path d="M915.456 389.12c-9.216-30.72-36.864-52.224-67.584-52.224l-48.128 0-68.608 0L288.768 336.896c0-3.072 0-6.144 0-10.24 0-121.856 99.328-222.208 222.208-222.208 79.872 0 149.504 41.984 188.416 105.472 10.24 16.384 16.384 23.552 22.528 41.984 1.024 2.048 1.024 4.096 2.048 5.12 4.096 15.36 17.408 26.624 32.768 26.624 2.048 0 5.12 0 8.192-1.024 17.408-4.096 28.672-21.504 25.6-38.912 0-1.024 0-1.024 0-2.048-1.024-4.096-3.072-9.216-4.096-14.336C746.496 111.616 638.976 36.864 509.952 36.864c-159.744 0-289.792 130.048-289.792 289.792 0 3.072 0 6.144 0 10.24l-48.128 0c-31.744 0-58.368 20.48-68.608 52.224-1.024 5.12-3.072 12.288-3.072 20.48l0 502.784c0 39.936 31.744 72.704 71.68 72.704l675.84 0c39.936 0 71.68-32.768 71.68-72.704L919.552 409.6C919.552 400.384 917.504 393.216 915.456 389.12zM850.944 912.384c0 3.072-2.048 4.096-3.072 4.096l-675.84 0c-2.048 0-3.072-2.048-3.072-4.096l1.024-503.808c0-1.024 1.024-3.072 3.072-3.072l58.368 0 71.68 0L716.8 405.504l71.68 0 58.368 0c1.024 0 2.048 2.048 3.072 4.096L849.92 912.384z" p-id="2447" fill="#e6e6e6"></path></svg>